<svg xmlns="http://www.w3.org/2000/svg" width="512" height="512"><path d="M0 0h512v512H0z" style="fill:#0e0e0e"/><path d="M189.834 209.467 155.7 267.2l-34.266-57.733H84.9l29.333 49.466-4.934 8.267-34.266-57.733h-36.4l55.066 93.2h31.067l7.733-12.8 7.6 12.8h31.067l55.2-93.2z" style="fill:#f1f1f1"/><path d="M220.767 302.666h95.066l-55.2-93.2h-31.066l-55.067 93.2h36.4l34.267-57.733 19.066 32.4h-28.4z" style="fill:#f1f1f1"/><path d="M348.9 302.666v-93.2h-31.067v93.2z" style="fill:#e60000"/><path d="M387.1 234.8h86.266v-25.333H377.1c-14 0-25.334 11.333-25.334 25.333v42.533c0 14 11.334 25.333 25.334 25.333h96.266v-25.333H387.1c-2.4 0-4.267-2-4.267-4.266v-34c0-2.267 1.867-4.267 4.267-4.267" style="fill:#f1f1f1"/></svg>