<svg xmlns="http://www.w3.org/2000/svg" width="512" height="512"><path d="M0 0h512v512H0Z" style="fill:#0e0e0e;stroke-width:1"/><path d="M326.452 472.503V197.486c0-14.629-9.765-23.406-17.67-16.092L24.646 457.143V0H0v493.714C0 503.954 5.115 512 11.626 512c2.325 0 4.185-.731 6.045-2.194l284.135-275.749V511.27H512V0h-25.112v472.503z" style="fill:#f1f1f1"/><path d="M493.88 2.922 105.466 379.07 25.09 301.65V.73H.465v322.83l81.306 78.882-76.66 73.77C1.858 479.862 0 484.975 0 491.548c0 2.922.465 6.574 1.394 8.765l1.394 3.652C4.646 509.078 8.363 512 12.08 512c2.323 0 4.181-.73 6.04-2.191l87.346-84.725 86.882 84.725c1.859 1.46 3.717 2.191 6.04 2.191 3.717 0 7.434-2.922 9.293-8.034l1.393-3.652c3.253-8.034 1.394-18.99-3.716-24.103l-76.661-73.769L486.91 54.78v456.49H512V18.26C512 8.035 506.425 0 499.92 0c-1.858 0-4.181.73-6.04 2.922" style="fill:#f1f1f1"/><path d="M185.38 38.821V301.78L5.574 476.84C1.858 480.504 0 486.363 0 492.956 0 503.943 5.11 512 12.08 512H512v-38.821H56.682l153.322-149.425V38.82h289.451c6.97 0 12.545-8.79 12.545-19.044C512 8.79 506.425 0 499.455 0H.465v38.821z" style="fill:#e40000"/><path d="M0 301.78V512h512v-38.821H24.647V323.754L317.617 38.82h169.271v273.946c0 10.987 5.58 19.777 12.556 19.777S512 323.754 512 312.767V0H310.641Z" style="fill:#f1f1f1"/></svg>